<?xml version="1.0" encoding="iso-8859-1"?>
<!-- Generator: Adobe Illustrator 19.0.0, SVG Export Plug-In . SVG Version: 6.00 Build 0)  -->
<svg xmlns="http://www.w3.org/2000/svg" xmlns:xlink="http://www.w3.org/1999/xlink" version="1.1" id="Layer_1" x="0px" y="0px" viewBox="0 0 512 512" style="enable-background:new 0 0 512 512;" xml:space="preserve">
<path style="fill:#5B5D6E;" d="M461.228,80.701H50.772c-14.168,0-25.653,11.485-25.653,25.653v282.188h461.762V106.355  C486.881,92.187,475.396,80.701,461.228,80.701z"/>
<rect x="59.324" y="114.906" style="fill:#9BF57D;" width="393.353" height="239.432"/>
<path style="fill:#E4EAF8;" d="M486.881,431.299H25.119c-9.446,0-17.102-7.656-17.102-17.102v-25.653h495.967v25.653  C503.983,423.642,496.327,431.299,486.881,431.299z"/>
<path d="M384.267,122.923h17.102c4.427,0,8.017-3.589,8.017-8.017c0-4.427-3.589-8.017-8.017-8.017h-17.102  c-4.427,0-8.017,3.589-8.017,8.017C376.251,119.333,379.84,122.923,384.267,122.923z"/>
<path d="M59.324,311.048c4.427,0,8.017-3.589,8.017-8.017V122.923h282.722c4.427,0,8.017-3.589,8.017-8.017  c0-4.427-3.589-8.017-8.017-8.017H59.324c-4.427,0-8.017,3.589-8.017,8.017v188.125C51.307,307.459,54.896,311.048,59.324,311.048z"/>
<path d="M452.676,106.889h-17.102c-4.427,0-8.017,3.589-8.017,8.017c0,4.427,3.589,8.017,8.017,8.017h9.086v223.399H67.34v-9.086  c0-4.427-3.589-8.017-8.017-8.017s-8.017,3.589-8.017,8.017v17.102c0,4.427,3.589,8.017,8.017,8.017h393.353  c4.427,0,8.017-3.589,8.017-8.017V114.906C460.693,110.479,457.104,106.889,452.676,106.889z"/>
<path d="M503.983,380.526h-9.086V106.355c0-18.566-15.105-33.67-33.67-33.67H50.772c-18.566,0-33.67,15.105-33.67,33.67v274.171  H8.017c-4.427,0-8.017,3.589-8.017,8.017v25.653c0,13.851,11.268,25.119,25.119,25.119h461.762  c13.851,0,25.119-11.268,25.119-25.119v-25.653C512,384.115,508.411,380.526,503.983,380.526z M33.136,106.355  c0-9.725,7.912-17.637,17.637-17.637h410.455c9.725,0,17.637,7.912,17.637,17.637v274.171H33.136V106.355z M495.967,414.196  c0,5.01-4.076,9.086-9.086,9.086H25.119c-5.01,0-9.086-4.076-9.086-9.086V396.56h197.772c-0.012,0.177-0.027,0.354-0.027,0.534  c0,4.427,3.589,8.017,8.017,8.017h68.409c4.427,0,8.017-3.589,8.017-8.017c0-0.181-0.015-0.357-0.027-0.534h197.772V414.196z"/>
<path d="M247.449,311.048c13.851,0,25.119-11.268,25.119-25.119v-17.102c0-13.851-11.268-25.119-25.119-25.119  c-13.851,0-25.119,11.268-25.119,25.119v17.102C222.33,299.78,233.598,311.048,247.449,311.048z M238.363,268.827  c0-5.01,4.076-9.086,9.086-9.086s9.086,4.076,9.086,9.086v17.102c0,5.01-4.076,9.086-9.086,9.086s-9.086-4.076-9.086-9.086V268.827z  "/>
<path d="M315.324,183.315c0-13.851-11.268-25.119-25.119-25.119c-13.851,0-25.119,11.268-25.119,25.119v17.102  c0,13.851,11.268,25.119,25.119,25.119c13.851,0,25.119-11.268,25.119-25.119V183.315z M299.29,200.418  c0,5.01-4.076,9.086-9.086,9.086s-9.086-4.076-9.086-9.086v-17.102c0-5.01,4.076-9.086,9.086-9.086s9.086,4.076,9.086,9.086V200.418  z"/>
<path d="M204.159,183.315c0-13.851-11.268-25.119-25.119-25.119c-13.851,0-25.119,11.268-25.119,25.119v17.102  c0,13.851,11.268,25.119,25.119,25.119c13.851,0,25.119-11.268,25.119-25.119V183.315z M188.125,200.418  c0,5.01-4.076,9.086-9.086,9.086s-9.086-4.076-9.086-9.086v-17.102c0-5.01,4.076-9.086,9.086-9.086s9.086,4.076,9.086,9.086V200.418  z"/>
<path d="M401.37,225.537c13.851,0,25.119-11.268,25.119-25.119v-17.102c0-13.851-11.268-25.119-25.119-25.119  c-13.851,0-25.119,11.268-25.119,25.119v17.102C376.251,214.268,387.519,225.537,401.37,225.537z M392.284,183.315  c0-5.01,4.076-9.086,9.086-9.086s9.086,4.076,9.086,9.086v17.102c0,5.01-4.076,9.086-9.086,9.086s-9.086-4.076-9.086-9.086V183.315z  "/>
<path d="M144.301,200.418v-17.102c0-13.851-11.268-25.119-25.119-25.119s-25.119,11.268-25.119,25.119v17.102  c0,13.851,11.268,25.119,25.119,25.119S144.301,214.268,144.301,200.418z M110.096,200.418v-17.102c0-5.01,4.076-9.086,9.086-9.086  c5.01,0,9.086,4.076,9.086,9.086v17.102c0,5.01-4.076,9.086-9.086,9.086C114.172,209.503,110.096,205.427,110.096,200.418z"/>
<path d="M333.495,268.827v17.102c0,13.851,11.268,25.119,25.119,25.119c13.851,0,25.119-11.268,25.119-25.119v-17.102  c0-13.851-11.268-25.119-25.119-25.119C344.763,243.708,333.495,254.976,333.495,268.827z M349.528,268.827  c0-5.01,4.076-9.086,9.086-9.086s9.086,4.076,9.086,9.086v17.102c0,5.01-4.076,9.086-9.086,9.086s-9.086-4.076-9.086-9.086V268.827z  "/>
<path d="M196.142,311.048c4.427,0,8.017-3.589,8.017-8.017v-51.307c0-2.779-1.439-5.359-3.802-6.82  c-2.362-1.46-5.316-1.593-7.8-0.351l-17.102,8.551c-3.96,1.981-5.566,6.795-3.585,10.755c1.98,3.96,6.795,5.567,10.755,3.585  l5.501-2.75v38.336C188.125,307.459,191.715,311.048,196.142,311.048z"/>
<path d="M110.63,311.048c4.427,0,8.017-3.589,8.017-8.017v-51.307c0-2.779-1.439-5.359-3.802-6.82  c-2.363-1.46-5.315-1.593-7.8-0.351l-17.102,8.551c-3.96,1.981-5.566,6.795-3.585,10.755c1.98,3.96,6.795,5.567,10.755,3.585  l5.501-2.75v38.336C102.614,307.459,106.203,311.048,110.63,311.048z"/>
<path d="M307.307,311.048c4.427,0,8.017-3.589,8.017-8.017v-51.307c0-2.779-1.439-5.359-3.802-6.82  c-2.363-1.46-5.315-1.593-7.8-0.351l-17.102,8.551c-3.96,1.981-5.566,6.795-3.585,10.755c1.98,3.96,6.795,5.567,10.755,3.585  l5.501-2.75v38.336C299.29,307.459,302.88,311.048,307.307,311.048z"/>
<path d="M418.472,311.048c4.427,0,8.017-3.589,8.017-8.017v-51.307c0-2.779-1.439-5.359-3.802-6.82  c-2.363-1.46-5.316-1.593-7.8-0.351l-17.102,8.551c-3.96,1.981-5.566,6.795-3.585,10.755c1.981,3.96,6.794,5.567,10.755,3.585  l5.501-2.75v38.336C410.455,307.459,414.044,311.048,418.472,311.048z"/>
<path d="M238.898,225.537c4.427,0,8.017-3.589,8.017-8.017v-51.307c0-2.779-1.439-5.359-3.802-6.82  c-2.363-1.46-5.315-1.594-7.8-0.351l-17.102,8.551c-3.96,1.981-5.566,6.795-3.585,10.755c1.98,3.96,6.794,5.567,10.755,3.585  l5.501-2.75v38.336C230.881,221.947,234.47,225.537,238.898,225.537z"/>
<path d="M350.063,225.537c4.427,0,8.017-3.589,8.017-8.017v-51.307c0-2.779-1.439-5.359-3.802-6.82  c-2.363-1.46-5.316-1.594-7.8-0.351l-17.102,8.551c-3.96,1.981-5.566,6.795-3.585,10.755s6.794,5.567,10.755,3.585l5.501-2.75  v38.336C342.046,221.947,345.635,225.537,350.063,225.537z"/>
<path d="M153.386,311.048c4.427,0,8.017-3.589,8.017-8.017v-51.307c0-2.779-1.439-5.359-3.802-6.82  c-2.363-1.46-5.315-1.593-7.8-0.351l-17.102,8.551c-3.96,1.981-5.566,6.795-3.585,10.755c1.981,3.96,6.794,5.567,10.755,3.585  l5.501-2.75v38.336C145.37,307.459,148.959,311.048,153.386,311.048z"/>
<g>
</g>
<g>
</g>
<g>
</g>
<g>
</g>
<g>
</g>
<g>
</g>
<g>
</g>
<g>
</g>
<g>
</g>
<g>
</g>
<g>
</g>
<g>
</g>
<g>
</g>
<g>
</g>
<g>
</g>
</svg>
